<mxfile host="65bd71144e">
    <diagram id="i-aZt4GZ1YJdeXAhtWmo" name="第 1 页">
        <mxGraphModel dx="1002" dy="576" grid="0" gridSize="10" guides="1" tooltips="1" connect="1" arrows="1" fold="1" page="0" pageScale="1" pageWidth="827" pageHeight="1169" math="0" shadow="0">
            <root>
                <mxCell id="0"/>
                <mxCell id="1" parent="0"/>
                <mxCell id="13" value="" style="edgeStyle=none;curved=1;html=1;fontSize=18;fontColor=#FF8000;" edge="1" parent="1" source="2" target="3">
                    <mxGeometry relative="1" as="geometry"/>
                </mxCell>
                <mxCell id="2" value="&lt;font color=&quot;#ff8000&quot; style=&quot;font-size: 18px;&quot;&gt;request&lt;/font&gt;" style="text;html=1;align=center;verticalAlign=middle;resizable=0;points=[];autosize=1;strokeColor=none;fillColor=none;" vertex="1" parent="1">
                    <mxGeometry x="85" y="150" width="78" height="34" as="geometry"/>
                </mxCell>
                <mxCell id="14" value="" style="edgeStyle=none;curved=1;html=1;fontSize=18;fontColor=#FF8000;" edge="1" parent="1" source="3" target="10">
                    <mxGeometry relative="1" as="geometry">
                        <Array as="points">
                            <mxPoint x="487" y="144"/>
                        </Array>
                    </mxGeometry>
                </mxCell>
                <mxCell id="3" value="waiting queue" style="rounded=0;whiteSpace=wrap;html=1;fontSize=18;fontColor=#FF8000;" vertex="1" parent="1">
                    <mxGeometry x="191" y="144.5" width="234" height="45" as="geometry"/>
                </mxCell>
                <mxCell id="4" value="Thread Pool" style="ellipse;whiteSpace=wrap;html=1;fontSize=18;fontColor=#FF8000;" vertex="1" parent="1">
                    <mxGeometry x="336" y="302" width="190" height="115" as="geometry"/>
                </mxCell>
                <mxCell id="7" value="" style="endArrow=classic;html=1;fontSize=18;fontColor=#FF8000;curved=1;exitX=0.339;exitY=0.038;exitDx=0;exitDy=0;exitPerimeter=0;" edge="1" parent="1" source="4">
                    <mxGeometry width="50" height="50" relative="1" as="geometry">
                        <mxPoint x="420" y="287" as="sourcePoint"/>
                        <mxPoint x="515" y="200" as="targetPoint"/>
                        <Array as="points">
                            <mxPoint x="388" y="227"/>
                        </Array>
                    </mxGeometry>
                </mxCell>
                <mxCell id="8" value="awakened" style="text;html=1;align=center;verticalAlign=middle;resizable=0;points=[];autosize=1;strokeColor=none;fillColor=none;fontSize=18;fontColor=#FF8000;" vertex="1" parent="1">
                    <mxGeometry x="313" y="217" width="100" height="34" as="geometry"/>
                </mxCell>
                <mxCell id="10" value="service" style="text;html=1;align=center;verticalAlign=middle;resizable=0;points=[];autosize=1;strokeColor=none;fillColor=none;fontSize=18;fontColor=#FF8000;" vertex="1" parent="1">
                    <mxGeometry x="520" y="180" width="75" height="34" as="geometry"/>
                </mxCell>
                <mxCell id="11" value="" style="endArrow=classic;html=1;fontSize=18;fontColor=#FF8000;curved=1;entryX=0.979;entryY=0.372;entryDx=0;entryDy=0;entryPerimeter=0;" edge="1" parent="1" source="10" target="4">
                    <mxGeometry width="50" height="50" relative="1" as="geometry">
                        <mxPoint x="601" y="334" as="sourcePoint"/>
                        <mxPoint x="651" y="284" as="targetPoint"/>
                        <Array as="points">
                            <mxPoint x="664" y="324"/>
                        </Array>
                    </mxGeometry>
                </mxCell>
                <mxCell id="12" value="done" style="text;html=1;align=center;verticalAlign=middle;resizable=0;points=[];autosize=1;strokeColor=none;fillColor=none;fontSize=18;fontColor=#FF8000;" vertex="1" parent="1">
                    <mxGeometry x="606" y="261" width="58" height="34" as="geometry"/>
                </mxCell>
            </root>
        </mxGraphModel>
    </diagram>
</mxfile>